<?xml version="1.0" encoding="UTF-8" standalone="no"?>
<!-- Created with Inkscape (http://www.inkscape.org/) -->

<svg
   xmlns:dc="http://purl.org/dc/elements/1.1/"
   xmlns:cc="http://creativecommons.org/ns#"
   xmlns:rdf="http://www.w3.org/1999/02/22-rdf-syntax-ns#"
   xmlns:svg="http://www.w3.org/2000/svg"
   xmlns="http://www.w3.org/2000/svg"
   xmlns:xlink="http://www.w3.org/1999/xlink"
   xmlns:sodipodi="http://sodipodi.sourceforge.net/DTD/sodipodi-0.dtd"
   xmlns:inkscape="http://www.inkscape.org/namespaces/inkscape"
   inkscape:output_extension="org.inkscape.output.svg.inkscape"
   id="svg2"
   version="1.0"
   inkscape:version="0.91 r13725"
   sodipodi:version="0.32"
   height="30"
   inkscape:export-ydpi="90"
   inkscape:export-xdpi="90"
   width="40"
   sodipodi:docname="folderRT_green.svg"
   inkscape:export-filename="/home/martin/Projects/Fedora/Graphics/Echo/Perspective/folder2.png">
  <defs
     id="defs4">
    <marker
       inkscape:stockid="SquareL"
       orient="auto"
       refY="0"
       refX="0"
       id="marker5297"
       style="overflow:visible"
       inkscape:isstock="true">
      <path
         id="path5299"
         d="M -5,-5 -5,5 5,5 5,-5 -5,-5 Z"
         style="fill:#000000;fill-opacity:1;fill-rule:evenodd;stroke:#000000;stroke-width:1pt;stroke-opacity:1"
         transform="scale(0.8,0.8)"
         inkscape:connector-curvature="0" />
    </marker>
    <marker
       inkscape:stockid="DotL"
       orient="auto"
       refY="0"
       refX="0"
       id="DotL"
       style="overflow:visible"
       inkscape:isstock="true">
      <path
         id="path4247"
         d="m -2.5,-1 c 0,2.76 -2.24,5 -5,5 -2.76,0 -5,-2.24 -5,-5 0,-2.76 2.24,-5 5,-5 2.76,0 5,2.24 5,5 z"
         style="fill:#000000;fill-opacity:1;fill-rule:evenodd;stroke:#000000;stroke-width:1pt;stroke-opacity:1"
         transform="matrix(0.8,0,0,0.8,5.92,0.8)"
         inkscape:connector-curvature="0" />
    </marker>
    <marker
       style="overflow:visible"
       id="marker5021"
       refX="0"
       refY="0"
       orient="auto"
       inkscape:stockid="DistanceEnd"
       inkscape:isstock="true">
      <g
         id="g5023"
         style="fill:#000000;fill-opacity:1;stroke:#000000;stroke-opacity:1">
        <path
           style="fill:#000000;fill-opacity:1;stroke:#000000;stroke-width:1.14999998;stroke-linecap:square;stroke-opacity:1"
           d="M 0,0 -2,0"
           id="path5025"
           inkscape:connector-curvature="0" />
        <path
           style="fill:#000000;fill-opacity:1;fill-rule:evenodd;stroke:#000000;stroke-opacity:1"
           d="M 0,0 -13,4 -9,0 -13,-4 0,0 Z"
           id="path5027"
           inkscape:connector-curvature="0" />
        <path
           style="fill:#000000;fill-opacity:1;stroke:#000000;stroke-width:1;stroke-linecap:square;stroke-opacity:1"
           d="M 0,-4 0,40"
           id="path5029"
           inkscape:connector-curvature="0" />
      </g>
    </marker>
    <marker
       inkscape:stockid="SquareL"
       orient="auto"
       refY="0"
       refX="0"
       id="SquareL"
       style="overflow:visible"
       inkscape:isstock="true">
      <path
         id="path4256"
         d="M -5,-5 -5,5 5,5 5,-5 -5,-5 Z"
         style="fill:#000000;fill-opacity:1;fill-rule:evenodd;stroke:#000000;stroke-width:1pt;stroke-opacity:1"
         transform="scale(0.8,0.8)"
         inkscape:connector-curvature="0" />
    </marker>
    <marker
       inkscape:stockid="DotS"
       orient="auto"
       refY="0"
       refX="0"
       id="marker4847"
       style="overflow:visible"
       inkscape:isstock="true">
      <path
         id="path4849"
         d="m -2.5,-1 c 0,2.76 -2.24,5 -5,5 -2.76,0 -5,-2.24 -5,-5 0,-2.76 2.24,-5 5,-5 2.76,0 5,2.24 5,5 z"
         style="fill:#000000;fill-opacity:1;fill-rule:evenodd;stroke:#000000;stroke-width:1pt;stroke-opacity:1"
         transform="matrix(0.2,0,0,0.2,1.48,0.2)"
         inkscape:connector-curvature="0" />
    </marker>
    <marker
       inkscape:stockid="DotS"
       orient="auto"
       refY="0"
       refX="0"
       id="DotS"
       style="overflow:visible"
       inkscape:isstock="true">
      <path
         id="path4253"
         d="m -2.5,-1 c 0,2.76 -2.24,5 -5,5 -2.76,0 -5,-2.24 -5,-5 0,-2.76 2.24,-5 5,-5 2.76,0 5,2.24 5,5 z"
         style="fill:#000000;fill-opacity:1;fill-rule:evenodd;stroke:#000000;stroke-width:1pt;stroke-opacity:1"
         transform="matrix(0.2,0,0,0.2,1.48,0.2)"
         inkscape:connector-curvature="0" />
    </marker>
    <marker
       style="overflow:visible"
       id="marker4673"
       refX="0"
       refY="0"
       orient="auto"
       inkscape:stockid="DistanceEnd"
       inkscape:isstock="true">
      <g
         id="g4675"
         style="fill:#000000;fill-opacity:1;stroke:#000000;stroke-opacity:1">
        <path
           style="fill:#000000;fill-opacity:1;stroke:#000000;stroke-width:1.14999998;stroke-linecap:square;stroke-opacity:1"
           d="M 0,0 -2,0"
           id="path4677"
           inkscape:connector-curvature="0" />
        <path
           style="fill:#000000;fill-opacity:1;fill-rule:evenodd;stroke:#000000;stroke-opacity:1"
           d="M 0,0 -13,4 -9,0 -13,-4 0,0 Z"
           id="path4679"
           inkscape:connector-curvature="0" />
        <path
           style="fill:#000000;fill-opacity:1;stroke:#000000;stroke-width:1;stroke-linecap:square;stroke-opacity:1"
           d="M 0,-4 0,40"
           id="path4681"
           inkscape:connector-curvature="0" />
      </g>
    </marker>
    <marker
       style="overflow:visible"
       id="DistanceEnd"
       refX="0"
       refY="0"
       orient="auto"
       inkscape:stockid="DistanceEnd"
       inkscape:isstock="true">
      <g
         id="g2301"
         style="fill:#000000;fill-opacity:1;stroke:#000000;stroke-opacity:1">
        <path
           style="fill:#000000;fill-opacity:1;stroke:#000000;stroke-width:1.14999998;stroke-linecap:square;stroke-opacity:1"
           d="M 0,0 -2,0"
           id="path2316"
           inkscape:connector-curvature="0" />
        <path
           style="fill:#000000;fill-opacity:1;fill-rule:evenodd;stroke:#000000;stroke-opacity:1"
           d="M 0,0 -13,4 -9,0 -13,-4 0,0 Z"
           id="path2312"
           inkscape:connector-curvature="0" />
        <path
           style="fill:#000000;fill-opacity:1;stroke:#000000;stroke-width:1;stroke-linecap:square;stroke-opacity:1"
           d="M 0,-4 0,40"
           id="path2314"
           inkscape:connector-curvature="0" />
      </g>
    </marker>
    <marker
       inkscape:stockid="Arrow1Send"
       orient="auto"
       refY="0"
       refX="0"
       id="Arrow1Send"
       style="overflow:visible"
       inkscape:isstock="true">
      <path
         id="path4201"
         d="M 0,0 5,-5 -12.5,0 5,5 0,0 Z"
         style="fill:#000000;fill-opacity:1;fill-rule:evenodd;stroke:#000000;stroke-width:1pt;stroke-opacity:1"
         transform="matrix(-0.2,0,0,-0.2,-1.2,0)"
         inkscape:connector-curvature="0" />
    </marker>
    <marker
       style="overflow:visible"
       id="DistanceStart"
       refX="0"
       refY="0"
       orient="auto"
       inkscape:stockid="DistanceStart"
       inkscape:isstock="true">
      <g
         id="g2300"
         style="fill:#000000;fill-opacity:1;stroke:#000000;stroke-opacity:1">
        <path
           style="fill:#000000;fill-opacity:1;stroke:#000000;stroke-width:1.14999998;stroke-linecap:square;stroke-opacity:1"
           d="M 0,0 2,0"
           id="path2306"
           inkscape:connector-curvature="0" />
        <path
           style="fill:#000000;fill-opacity:1;fill-rule:evenodd;stroke:#000000;stroke-opacity:1"
           d="M 0,0 13,4 9,0 13,-4 0,0 Z"
           id="path2302"
           inkscape:connector-curvature="0" />
        <path
           style="fill:#000000;fill-opacity:1;stroke:#000000;stroke-width:1;stroke-linecap:square;stroke-opacity:1"
           d="M 0,-4 0,40"
           id="path2304"
           inkscape:connector-curvature="0" />
      </g>
    </marker>
    <marker
       inkscape:stockid="Arrow1Lstart"
       orient="auto"
       refY="0"
       refX="0"
       id="Arrow1Lstart"
       style="overflow:visible"
       inkscape:isstock="true">
      <path
         id="path4186"
         d="M 0,0 5,-5 -12.5,0 5,5 0,0 Z"
         style="fill:#000000;fill-opacity:1;fill-rule:evenodd;stroke:#000000;stroke-width:1pt;stroke-opacity:1"
         transform="matrix(0.8,0,0,0.8,10,0)"
         inkscape:connector-curvature="0" />
    </marker>
    <linearGradient
       id="linearGradient3739">
      <stop
         style="stop-color:#ad6a0c;stop-opacity:1;"
         offset="0"
         id="stop3741" />
      <stop
         style="stop-color:#d09f07;stop-opacity:1;"
         offset="1"
         id="stop3743" />
    </linearGradient>
    <linearGradient
       id="linearGradient2915">
      <stop
         style="stop-color:#dfa842;stop-opacity:1;"
         offset="0"
         id="stop2917" />
      <stop
         style="stop-color:#ca8a11;stop-opacity:1;"
         offset="1"
         id="stop2919" />
    </linearGradient>
    <linearGradient
       id="linearGradient2907">
      <stop
         style="stop-color:#006500;stop-opacity:1"
         offset="0"
         id="stop2909" />
      <stop
         id="stop3751"
         offset="0.07629139"
         style="stop-color:#00b800;stop-opacity:1" />
      <stop
         style="stop-color:#7aef7a;stop-opacity:1"
         offset="0.25572011"
         id="stop4168" />
      <stop
         id="stop2923"
         offset="0.58684593"
         style="stop-color:#65f180;stop-opacity:1" />
      <stop
         style="stop-color:#00b800;stop-opacity:1"
         offset="1"
         id="stop2911" />
    </linearGradient>
    <linearGradient
       inkscape:collect="always"
       xlink:href="#linearGradient2907"
       id="linearGradient2913"
       x1="159.03033"
       y1="233"
       x2="159.03033"
       y2="82"
       gradientUnits="userSpaceOnUse"
       gradientTransform="matrix(0.18060252,0,0,0.16405602,-8.1729789,259.95569)" />
    <linearGradient
       inkscape:collect="always"
       xlink:href="#linearGradient3739"
       id="linearGradient3747"
       x1="221.25"
       y1="71.25"
       x2="197.75"
       y2="233.75"
       gradientUnits="userSpaceOnUse"
       gradientTransform="matrix(0.18060252,0,0,0.16405602,-8.2632808,259.95569)" />
    <filter
       inkscape:collect="always"
       id="filter3796"
       x="-0.024907934"
       width="1.0498159"
       y="-0.46645769"
       height="1.9329154">
      <feGaussianBlur
         inkscape:collect="always"
         stdDeviation="2.137931"
         id="feGaussianBlur3798" />
    </filter>
  </defs>
  <sodipodi:namedview
     inkscape:cy="20.412046"
     inkscape:current-layer="artwork"
     inkscape:window-width="1409"
     pagecolor="#ffffff"
     objecttolerance="10"
     showgrid="false"
     inkscape:pageshadow="2"
     inkscape:window-x="1785"
     id="base"
     bordercolor="#666666"
     inkscape:window-y="156"
     gridtolerance="10000"
     inkscape:document-units="px"
     inkscape:zoom="8.0000002"
     inkscape:window-height="731"
     borderopacity="1.0"
     guidetolerance="10"
     inkscape:cx="25.381035"
     inkscape:pageopacity="0.0"
     showguides="true"
     inkscape:guide-bbox="true"
     inkscape:window-maximized="0" />
  <metadata
     id="metadata7">
    <rdf:RDF>
      <cc:Work
         rdf:about="">
        <dc:format>image/svg+xml</dc:format>
        <dc:type
           rdf:resource="http://purl.org/dc/dcmitype/StillImage" />
        <cc:license
           rdf:resource="http://creativecommons.org/licenses/by-sa/3.0/" />
        <dc:title></dc:title>
        <dc:description>places</dc:description>
      </cc:Work>
      <cc:License
         rdf:about="http://creativecommons.org/licenses/by-sa/3.0/">
        <cc:permits
           rdf:resource="http://creativecommons.org/ns#Reproduction" />
        <cc:permits
           rdf:resource="http://creativecommons.org/ns#Distribution" />
        <cc:requires
           rdf:resource="http://creativecommons.org/ns#Notice" />
        <cc:requires
           rdf:resource="http://creativecommons.org/ns#Attribution" />
        <cc:permits
           rdf:resource="http://creativecommons.org/ns#DerivativeWorks" />
        <cc:requires
           rdf:resource="http://creativecommons.org/ns#ShareAlike" />
      </cc:License>
    </rdf:RDF>
  </metadata>
  <g
     inkscape:groupmode="layer"
     id="plate"
     inkscape:label="plate"
     style="display:none"
     sodipodi:insensitive="true"
     transform="translate(0,-270)">
    <rect
       x="30"
       y="24"
       id="256x256"
       height="256"
       style="opacity:1;fill:#cccccc;fill-opacity:1;stroke:none;stroke-width:0.75;stroke-linecap:round;stroke-linejoin:round;stroke-miterlimit:4;stroke-dasharray:none;stroke-opacity:1"
       width="256" />
    <rect
       x="318"
       y="38.000011"
       id="48x48"
       height="48"
       inkscape:label="scalable"
       width="48"
       style="opacity:1;fill:#cccccc;fill-opacity:1;stroke:none;stroke-width:0.75;stroke-linecap:round;stroke-linejoin:round;stroke-miterlimit:4;stroke-dasharray:none;stroke-opacity:1" />
    <rect
       x="326"
       y="120"
       id="32x32"
       height="32"
       style="opacity:1;fill:#cccccc;fill-opacity:1;stroke:none;stroke-width:0.75;stroke-linecap:round;stroke-linejoin:round;stroke-miterlimit:4;stroke-dasharray:none;stroke-opacity:1"
       width="32" />
    <rect
       x="330"
       y="186"
       id="24x24"
       height="24"
       width="24"
       style="opacity:1;fill:#cccccc;fill-opacity:1;stroke:none;stroke-width:0.75;stroke-linecap:round;stroke-linejoin:round;stroke-miterlimit:4;stroke-dasharray:none;stroke-opacity:1" />
    <rect
       x="331"
       y="187"
       id="22x22"
       height="22"
       style="opacity:1;fill:#999999;fill-opacity:1;stroke:none;stroke-width:0.75;stroke-linecap:round;stroke-linejoin:round;stroke-miterlimit:4;stroke-dasharray:none;stroke-opacity:1"
       width="22" />
    <rect
       x="334"
       y="243"
       id="16x16"
       height="16"
       style="opacity:1;fill:#cccccc;fill-opacity:1;stroke:none;stroke-width:0.75;stroke-linecap:round;stroke-linejoin:round;stroke-miterlimit:4;stroke-dasharray:none;stroke-opacity:1"
       width="16" />
  </g>
  <g
     inkscape:groupmode="layer"
     id="artwork"
     inkscape:label="artwork"
     style="display:inline"
     transform="translate(0,-270)">
    <path
       style="opacity:0.70854271;fill:#2d2d2d;fill-opacity:1;stroke:none;stroke-width:1.5;stroke-linecap:round;stroke-linejoin:round;stroke-miterlimit:4;stroke-opacity:1;filter:url(#filter3796)"
       d="m 63,231 190,0 8,11 -206,0 8,-11 z"
       id="rect3757"
       sodipodi:nodetypes="ccccc"
       inkscape:connector-curvature="0"
       transform="matrix(0.18060251,0,0,0.16405602,-8.2632805,259.13541)" />
    <path
       sodipodi:nodetypes="csscccssscccccc"
       id="path3745"
       d="m 6.1059062,271.76772 c -1.3951214,0 -2.388137,0.42655 -2.4832843,1.93791 -0.2450837,3.89299 -1.2303544,12.86717 -1.2303544,16.76448 l 0,6.593 c 0.018183,0.56911 0.7180414,1.11763 1.3037242,1.11763 l 33.3380933,0 c 0.638411,0 1.29808,-0.54596 1.29808,-1.32783 l 0,-6.3828 c 0,-3.50542 -0.944352,-11.03495 -1.258574,-14.15497 -0.13466,-1.33709 -1.367722,-2.25064 -2.946077,-2.25064 l -10.717631,0 -3.753145,0 -0.660328,-1.0151 c -0.644623,-0.98833 -1.354121,-1.28168 -2.218024,-1.28168 l -10.6724798,0 z"
       style="fill:none;fill-opacity:1;fill-rule:evenodd;stroke:url(#linearGradient3747);stroke-width:0.25819582;stroke-linecap:butt;stroke-linejoin:miter;stroke-opacity:1"
       inkscape:connector-curvature="0" />
    <path
       style="fill:#009500;fill-opacity:1;fill-rule:evenodd;stroke:#008000;stroke-width:0.57435364;stroke-linecap:butt;stroke-linejoin:miter;stroke-miterlimit:4;stroke-dasharray:none;stroke-opacity:1"
       d="m 6.1059062,271.76772 c -1.3951214,0 -2.388137,0.42655 -2.4832843,1.93791 -0.2450837,3.89299 -1.2303544,12.86717 -1.2303544,16.76448 l 0,6.593 c 0.018183,0.56911 0.7180414,1.11763 1.3037242,1.11763 l 33.3380933,0 c 0.638411,0 1.29808,-0.54596 1.29808,-1.32783 l 0,-6.3828 c 0,-3.50542 -0.944352,-11.03495 -1.258574,-14.15497 -0.13466,-1.33709 -1.367722,-2.25064 -2.946077,-2.25064 l -10.717631,0 -3.753145,0 -0.660328,-1.0151 c -0.644623,-0.98833 -1.354121,-1.28168 -2.218024,-1.28168 l -10.6724798,0 z"
       id="path2896"
       sodipodi:nodetypes="csscccssscccccc"
       inkscape:connector-curvature="0" />
    <path
       style="fill:url(#linearGradient2913);fill-opacity:1;stroke:#008000;stroke-width:0.57435364;stroke-linecap:round;stroke-linejoin:round;stroke-miterlimit:4;stroke-dasharray:none;stroke-opacity:1"
       d="m 24.154868,276.36129 11.695294,0 c 1.936506,0 3.26714,1.20299 3.114112,3.05363 -0.265018,3.205 -0.147071,8.08566 -0.314176,10.89113 -0.139285,2.33837 -0.225659,4.08971 -0.227632,6.56223 -5.81e-4,0.58133 -0.624273,1.31246 -1.264217,1.31246 l -33.4114629,0 c -0.5959577,0 -1.2582703,-0.60706 -1.2642174,-1.14839 -0.027834,-2.53337 -0.064441,-4.47997 -0.1408627,-6.7263 -0.1008127,-2.96322 -0.2709075,-7.65416 -0.5815474,-10.7472 0.00977,-2.57107 1.8687645,-3.19756 3.3116304,-3.19756 l 19.083079,0 z"
       id="rect2544"
       sodipodi:nodetypes="csssssssscsc"
       inkscape:connector-curvature="0" />
    <g
       id="g5605"
       transform="matrix(0.18060251,0,0,0.16405602,-9.2565942,259.54554)">
      <path
         inkscape:connector-curvature="0"
         id="path5561"
         d="m 186.09229,136.59336 c 0,63.47098 0,67.20457 0,67.20457"
         style="fill:none;fill-rule:evenodd;stroke:#000000;stroke-width:9;stroke-linecap:butt;stroke-linejoin:miter;stroke-miterlimit:4;stroke-dasharray:none;stroke-opacity:1" />
      <path
         inkscape:connector-curvature="0"
         id="path5561-6"
         d="m 134.4151,170.20085 c 46.2307,0 48.95015,0 48.95015,0"
         style="display:inline;fill:none;fill-rule:evenodd;stroke:#000000;stroke-width:9;stroke-linecap:butt;stroke-linejoin:miter;stroke-miterlimit:4;stroke-dasharray:none;stroke-opacity:1" />
      <path
         inkscape:connector-curvature="0"
         id="path5561-8"
         d="m 123.31443,139.49506 c 22.07275,59.50932 23.37114,63.00987 23.37114,63.00987"
         style="display:inline;fill:none;fill-rule:evenodd;stroke:#000000;stroke-width:9;stroke-linecap:butt;stroke-linejoin:miter;stroke-miterlimit:4;stroke-dasharray:none;stroke-opacity:1" />
    </g>
  </g>
</svg>
